<?xml version="1.0" standalone="no"?><!DOCTYPE svg PUBLIC "-//W3C//DTD SVG 1.1//EN" "http://www.w3.org/Graphics/SVG/1.1/DTD/svg11.dtd"><svg t="1669559232478" class="icon" viewBox="0 0 1024 1024" version="1.1" xmlns="http://www.w3.org/2000/svg" p-id="4377" xmlns:xlink="http://www.w3.org/1999/xlink" width="64" height="64"><path d="M846.706821 660.494313a40.958387 40.958387 0 0 1-19.199244-5.119798 35.198614 35.198614 0 0 1-15.359395-22.399118 32.638715 32.638715 0 0 1 4.479823-25.598992 341.746544 341.746544 0 0 0 56.317783-188.792567A356.465964 356.465964 0 0 0 512 67.877647a356.465964 356.465964 0 0 0-360.945788 350.706191 35.838589 35.838589 0 0 1-35.838589 35.198614 35.838589 35.838589 0 0 1-35.838588-34.558639A426.863192 426.863192 0 0 1 512 0.040318a426.863192 426.863192 0 0 1 432.622965 420.463445 409.583873 409.583873 0 0 1-63.99748 225.27113 36.478564 36.478564 0 0 1-30.71879 15.99937zM990.061176 1024a32.638715 32.638715 0 0 0 32.638715-31.99874v-181.752844a31.99874 31.99874 0 0 0-26.238967-30.71879A988.761068 988.761068 0 0 1 767.98992 691.853078a247.030273 247.030273 0 0 0-127.99496-51.837959 63.99748 63.99748 0 0 0-57.597732 30.078816 82.556749 82.556749 0 0 0 0 79.356875c5.759773 8.959647 15.99937 24.319042 30.718791 45.438211l8.319672 10.879572h-12.799496c-269.429391-16.639345-316.787526-76.796976-370.54541-145.914255a673.893465 673.893465 0 0 0-56.317782-63.99748 170.873272 170.873272 0 0 0-106.235817-57.597732 63.99748 63.99748 0 0 0-55.677808 29.438841A183.032793 183.032793 0 0 0 11.539706 704.0126a520.939488 520.939488 0 0 0 188.792566 223.99118A629.095229 629.095229 0 0 0 384.00504 1011.840479 268.789416 268.789416 0 0 0 448.00252 1024h543.978581zM512 960.00252a622.055507 622.055507 0 0 1-116.475414-10.239597 499.82032 499.82032 0 0 1-324.467224-267.509467 54.397858 54.397858 0 0 1 0-30.71879 30.71879 30.71879 0 0 1 28.798866-32.638715 30.71879 30.71879 0 0 1 12.799496 0c3.199874 0 3.199874 0 24.319043 19.839219a588.776817 588.776817 0 0 1 49.918034 56.957757c63.99748 84.476674 127.99496 164.473524 500.460294 174.073146a29.438841 29.438841 0 0 0 27.518917-16.639345 30.078816 30.078816 0 0 0 0-32.638715c-16.639345-22.399118-54.397858-77.436951-54.397858-78.076925-7.039723-10.239597-8.959647-17.27932-5.759773-23.039093a10.239597 10.239597 0 0 1 10.879571-6.399748 35.838589 35.838589 0 0 1 15.359395 4.479823 344.946418 344.946418 0 0 1 49.27806 24.959018l15.99937 8.319672A1055.318447 1055.318447 0 0 0 952.302663 832.00756h5.119798v127.99496z" p-id="4378" fill="#1677ff"></path><path d="M512 640.015119a26.878942 26.878942 0 0 0 29.438841-23.039092V519.059882h107.515766a30.078816 30.078816 0 0 0 0-60.157631H541.438841v-47.99811h107.515766a30.078816 30.078816 0 0 0 0-59.517657H542.078816L639.99496 248.350541a31.358765 31.358765 0 0 0 0-42.238337 28.158891 28.158891 0 0 0-21.119168-8.319672 26.878942 26.878942 0 0 0-20.479194 8.319672L512 296.988626 423.043503 206.112204a29.438841 29.438841 0 1 0-39.038463 42.238337l97.916144 103.035943H375.045393a30.078816 30.078816 0 0 0 0 59.517657h107.515766v47.99811H375.045393a30.078816 30.078816 0 0 0 0 60.157631h107.515766v94.716271A26.878942 26.878942 0 0 0 512 640.015119z" p-id="4379" fill="#1677ff"></path></svg>