<?xml version="1.0" standalone="no"?><svg xmlns="http://www.w3.org/2000/svg" viewBox="0 0 1440 320"><path fill="#0099ff" fill-opacity="1" d="M0,224L40,197.3C80,171,160,117,240,96C320,75,400,85,480,122.7C560,160,640,224,720,240C800,256,880,224,960,197.3C1040,171,1120,149,1200,160C1280,171,1360,213,1400,234.7L1440,256L1440,320L1400,320C1360,320,1280,320,1200,320C1120,320,1040,320,960,320C880,320,800,320,720,320C640,320,560,320,480,320C400,320,320,320,240,320C160,320,80,320,40,320L0,320Z"></path></svg>